<?xml version="1.0" encoding="UTF-8" standalone="no"?>
<!-- Created with Inkscape (http://www.inkscape.org/) -->

<svg
   xmlns:dc="http://purl.org/dc/elements/1.1/"
   xmlns:cc="http://creativecommons.org/ns#"
   xmlns:rdf="http://www.w3.org/1999/02/22-rdf-syntax-ns#"
   xmlns:svg="http://www.w3.org/2000/svg"
   xmlns="http://www.w3.org/2000/svg"
   xmlns:sodipodi="http://sodipodi.sourceforge.net/DTD/sodipodi-0.dtd"
   xmlns:inkscape="http://www.inkscape.org/namespaces/inkscape"
   version="1.1"
   width="979.93048"
   height="291.84015"
   id="svg2"
   inkscape:version="0.48.2 r9819"
   sodipodi:docname="vectorized AM_MIT logo.svg">
  <sodipodi:namedview
     pagecolor="#ffffff"
     bordercolor="#666666"
     borderopacity="1"
     objecttolerance="10"
     gridtolerance="10"
     guidetolerance="10"
     inkscape:pageopacity="0"
     inkscape:pageshadow="2"
     inkscape:window-width="1280"
     inkscape:window-height="671"
     id="namedview12"
     showgrid="false"
     fit-margin-top="10"
     fit-margin-left="10"
     fit-margin-right="10"
     fit-margin-bottom="10"
     inkscape:zoom="0.31716402"
     inkscape:cx="484.62169"
     inkscape:cy="166.45878"
     inkscape:window-x="0"
     inkscape:window-y="0"
     inkscape:window-maximized="1"
     inkscape:current-layer="svg2" />
  <defs
     id="defs4" />
  <metadata
     id="metadata7">
    <rdf:RDF>
      <cc:Work
         rdf:about="">
        <dc:format>image/svg+xml</dc:format>
        <dc:type
           rdf:resource="http://purl.org/dc/dcmitype/StillImage" />
        <dc:title></dc:title>
      </cc:Work>
    </rdf:RDF>
  </metadata>
  <g
     transform="translate(-41.559402,-554.93356)"
     id="layer1">
    <g
       transform="translate(5.7142857,-2.8571471)"
       id="g2996">
      <path
         d="m 77.214287,838.40471 c -26.75517,-6.50639 -39.52143,-37.59334 -25.79506,-62.81321 11.600815,-21.31452 42.848669,-27.42379 60.590693,-11.84608 l 3.70437,3.25247 0,-5.13181 0,-5.13181 13.75,0.27822 13.75,0.27822 0,5.5 0,5.5 -6,0.5 -6,0.5 0,28 0,28 6,0.5 6,0.5 0,5.5 0,5.5 -13.75,0.27822 -13.75,0.27822 0,-5.13181 0,-5.13181 -3.52781,3.09745 c -9.03909,7.93642 -22.171221,10.8367 -34.972193,7.72373 z m 24.234153,-13.96263 c 9.12823,-4.7596 14.42377,-13.618 15.03545,-25.15137 0.73695,-13.89559 -4.9532,-23.91277 -16.63495,-29.28487 -4.509497,-2.07378 -6.423668,-2.39139 -12,-1.99108 -8.109685,0.58217 -13.338699,3.10391 -18.862658,9.0967 -6.8879,7.47249 -9.058196,19.2197 -5.680644,30.74775 1.24902,4.26308 2.843012,6.65726 7.409788,11.12953 3.200141,3.13392 7.321533,6.15721 9.15865,6.71842 4.887179,1.49296 17.729004,0.73994 21.574364,-1.26508 z m 755.31115,14.31951 c -11.81394,-2.48355 -22.5835,-11.1455 -28.24106,-22.71426 -3.18005,-6.50267 -3.30424,-7.20764 -3.30424,-18.75662 0,-11.40183 0.15825,-12.33509 3.17476,-18.72238 4.129,-8.74293 11.35957,-15.96285 20.06719,-20.03764 5.46873,-2.55913 8.31293,-3.2214 15.24075,-3.54881 10.61468,-0.50166 17.66269,1.39168 25.4269,6.83053 l 5.63008,3.94388 -0.26984,-21.23279 -0.26984,-21.23279 -6.75,-0.29569 -6.75,-0.29569 0,-5.95431 0,-5.95431 14.49181,0 14.49181,0 0.25819,57.25 0.25819,57.25 6.25,0.29772 6.25,0.29771 0,5.95229 0,5.95228 -14,0 -14,0 0,-4.54712 0,-4.54713 -3.75,3.00153 c -6.27951,5.02616 -12.70133,7.29861 -21.66809,7.66754 -4.44505,0.1829 -10.08652,-0.0889 -12.53661,-0.60394 z m 24.27448,-15.31239 c 9.48046,-5.55592 14.07662,-14.06262 14.13342,-26.15849 0.0319,-6.78579 -0.38836,-8.8688 -2.76876,-13.72425 -10.60668,-21.63507 -41.29593,-20.46651 -49.66093,1.89095 -6.29249,16.81818 1.86018,35.17361 17.97002,40.45883 4.95326,1.62504 15.53522,0.34069 20.32625,-2.46704 z m 82.42614,15.31101 c -4.3615,-1.09202 -13.31566,-5.4643 -14.23417,-6.95048 -1.29794,-2.10011 -2.51175,-0.90117 -2.51175,2.48098 l 0,3.5 -6,0 -6,0 0,-13.5 0,-13.5 6,0 c 3.3,0 6,0.40133 6,0.89185 0,2.35774 9.36679,11.02358 14.22057,13.15638 6.94084,3.04989 18.48773,3.31699 24.07348,0.55686 6.84113,-3.38045 8.72657,-10.75883 3.95595,-15.48102 -2.40314,-2.37875 -4.68979,-3.07063 -18.12937,-5.48551 -8.45865,-1.51989 -17.84781,-3.687 -20.8648,-4.8158 -11.63305,-4.35248 -17.03095,-14.31281 -14.32049,-26.42445 2.44086,-10.90691 11.7321,-17.30393 26.42345,-18.19254 9.31356,-0.56333 17.16384,0.98105 22.13509,4.35464 4.43841,3.01199 4.50612,3.01108 4.50612,-0.0604 0,-2.38889 0.26667,-2.5 6,-2.5 l 6.00001,0 0,12.5 0,12.5 -5.75187,0 c -5.69474,0 -5.78659,-0.0468 -9.25,-4.71552 -7.80228,-10.51754 -19.48792,-13.94215 -30.21104,-8.8537 -7.78647,3.69493 -8.49354,13.58251 -1.21819,17.0349 1.9108,0.90673 9.59108,2.74116 17.06731,4.07651 17.42451,3.11224 23.57366,5.08964 28.2351,9.07966 8.48069,7.25916 8.20139,23.59288 -0.55679,32.56635 -5.5263,5.66212 -12.1603,8.11771 -22.81453,8.44487 -4.95,0.152 -10.68933,-0.14661 -12.75408,-0.66357 z m -782.49525,-2.51464 c -11.88482,-3.20031 -19.49445,-9.48193 -24.61541,-20.3196 -3.04842,-6.45147 -3.13526,-7.02304 -3.13526,-20.63526 l 0,-14 3.75017,-7.67222 c 4.25071,-8.69624 9.23279,-13.65548 17.74983,-17.66843 4.76688,-2.246 6.83294,-2.59271 15.5,-2.60111 8.31523,-0.008 10.87249,0.38087 15.1787,2.3085 2.84828,1.27501 5.94592,3.16598 6.88364,4.20215 2.17191,2.39993 3.43766,1.61643 3.43766,-2.12791 0,-2.89816 0.0801,-2.94098 5.5,-2.94098 l 5.5,0 0,14 0,14 -4.97432,0 c -4.51061,0 -5.11829,-0.2784 -6.5187,-2.9865 -4.82372,-9.32805 -12.65682,-14.34189 -22.50698,-14.40634 -10.33732,-0.0676 -17.52594,4.75562 -22.19639,14.89284 -1.91791,4.16283 -2.30361,6.67434 -2.30361,15 0,11.61545 1.80778,16.78907 7.95129,22.75558 9.81333,9.53058 28.28722,8.88838 39.96319,-1.38922 l 4.62029,-4.06694 3.89797,3.35029 c 2.14388,1.84266 3.93606,3.69536 3.98261,4.11711 0.0466,0.42176 -2.05285,2.81494 -4.66535,5.3182 -10.85291,10.39906 -28.33543,14.81848 -42.99933,10.86984 z m 79.70766,0.84899 c -4.70409,-0.73382 -7.87304,-4.33836 -8.95887,-10.19034 -0.5497,-2.96257 -0.99946,-17.25007 -0.99946,-31.75 l 0,-26.36351 -7,0 -7,0 0,-6 0,-6 6.97395,0 6.97396,0 0.27604,-15.25 0.27605,-15.25 7.25,-0.29381 7.25,-0.29381 0,15.54381 0,15.54381 8.0499,0 8.04991,0 -0.29991,5.75 -0.2999,5.75 -7.75,0.29206 -7.75,0.29207 0,25.95793 c 0,25.14255 0.0668,26.02476 2.12734,28.08528 1.8378,1.8378 2.92664,2.05487 8,1.59483 l 5.87266,-0.53251 0,6.28017 c 0,6.23379 -0.0231,6.28479 -3.125,6.90517 -3.26273,0.65255 -13.53904,0.61174 -17.91667,-0.0711 z m 35.04167,-6.20455 c 0,-5.25479 0.59395,-8.17659 2.49023,-12.25 3.35873,-7.21492 3.36581,-16.26864 0.0222,-28.35633 -2.70113,-9.76502 -3.42651,-24.39266 -1.42721,-28.78065 3.70842,-8.1391 22.87315,-8.21243 25.95775,-0.0993 1.86237,4.8984 1.08486,19.3351 -1.55538,28.87997 -3.34362,12.08769 -3.33654,21.14141 0.0222,28.35633 1.89628,4.07341 2.49023,6.99521 2.49023,12.25 l 0,6.9007 -14,0 -14,0 0,-6.9007 z m 74.22285,1.6507 c -2.69333,-6.59151 -20.17337,-51.11608 -23.35354,-59.48532 l -2.36931,-6.23533 -4.75,-0.0147 -4.75,-0.0147 0,-6 0,-6 18,0 18,0 0,6 0,6 -5.60699,0 c -4.9205,0 -5.52755,0.21426 -4.95815,1.75 5.09776,13.74945 18.21245,46.2409 18.66603,46.24481 0.49506,0.004 9.87494,-22.49969 18.02487,-43.24481 l 1.86609,-4.75 -5.99593,0 -5.99592,0 0,-6 0,-6 17.5,0 17.5,0 0,6 0,6 -5,0 c -2.75,0 -5,0.4534 -5,1.00755 0,0.55416 -6.15084,16.52916 -13.66853,35.5 l -13.66853,34.49245 -6.14746,0 -6.14745,0 -2.14518,-5.25 z m 87.27715,3.86984 c -16.18654,-4.35262 -25.53306,-13.60927 -29.53305,-29.24906 -6.93338,-27.10927 7.01644,-49.82003 32.92046,-53.59558 25.52231,-3.71991 45.61175,9.83532 50.03456,33.76054 0.59292,3.20737 1.07803,7.32393 1.07803,9.14792 l 0,3.31634 -35.125,0 -35.125,0 0.6452,3.22601 c 4.40201,22.01005 33.85875,29.41145 50.24946,12.62585 3.62844,-3.71587 3.99912,-3.85186 10.49898,-3.85186 6.6826,0 6.72801,0.0185 5.54706,2.26263 -4.74996,9.02612 -13.03763,16.46259 -22.62383,20.30021 -7.92239,3.17155 -20.93702,4.10869 -28.56687,2.057 z m 38.49023,-50.36984 c -0.0165,-2.95998 -4.57912,-11.60303 -7.61375,-14.42296 -4.72712,-4.39266 -10.87794,-6.3338 -19.87648,-6.27285 -6.65486,0.0451 -8.87232,0.50502 -13.18799,2.73542 -2.8534,1.47468 -6.39361,4.26188 -7.86714,6.19378 -2.55651,3.35175 -5.30732,9.59935 -5.40098,12.26661 -0.0341,0.97022 5.99937,1.25 26.95611,1.25 25.05134,0 26.99929,-0.1263 26.99023,-1.75 z m 27.00977,45.75 0,-6 6,0 6,0 0,-28 0,-28 -6,0 -6,0 0,-6.5 0,-6.5 14,0 14,0 0,5.03239 0,5.0324 5.25,-3.91601 c 9.20271,-6.86435 11.30499,-7.61969 21.25,-7.63496 11.10825,-0.0171 15.60277,1.86879 19.4053,8.14221 1.42708,2.35441 2.82289,4.29498 3.10179,4.31236 0.2789,0.0174 2.9789,-2.00026 6,-4.48365 6.79854,-5.5885 14.24269,-8.48652 21.78042,-8.47916 11.23695,0.011 18.07811,3.55113 22.15321,11.46384 2.51548,4.88437 2.56784,5.43204 3.05928,32 l 0.5,27.03058 5.75,0.2999 5.75,0.29991 0,5.95009 0,5.9501 -19.5,0 -19.5,0 0,-5.9501 0,-5.95009 5.75,-0.29991 5.75,-0.2999 0.27336,-18.45668 c 0.35856,-24.20965 -0.63561,-31.61641 -4.73725,-35.29332 -6.35333,-5.69543 -20.13792,-2.34382 -27.54684,6.69778 l -3.48927,4.2582 0,21.64701 0,21.64701 6,0 6,0 0,6 0,6 -20,0 -20,0 0,-6 0,-6 6,0 6,0 -0.002,-23.75 c -0.002,-25.97118 -0.62357,-29.28569 -5.99845,-31.97135 -6.42817,-3.21194 -17.17061,0.0869 -24.76379,7.60455 l -4.23576,4.19409 0,21.96135 0,21.96136 6,0 6,0 0,6 0,6 -20,0 -20,0 0,-6 z m 155,-0.82759 c 0,-5.06557 0.67621,-8.48505 2.62022,-13.25 3.32148,-8.14127 3.31353,-13.80681 -0.0371,-26.39542 -1.95728,-7.35387 -2.58312,-12.12507 -2.58312,-19.69304 0,-9.6071 0.10679,-10.09458 2.80167,-12.78947 5.21006,-5.21006 17.1866,-5.21006 22.39666,0 2.68885,2.68885 2.80167,3.19749 2.80167,12.63093 0,7.12669 -0.68412,12.57811 -2.48817,19.82692 -3.13825,12.60968 -3.1405,17.63564 -0.0118,26.30906 1.71825,4.76339 2.5,9.00347 2.5,13.5596 l 0,6.62901 -14,0 -14,0 0,-6.82759 z m 45,0.87749 0,-5.95009 5.75,-0.29991 5.75,-0.2999 0.26582,-27.75 0.26582,-27.75 -6.01582,0 -6.01582,0 0,-6.5 0,-6.5 13.5,0 13.5,0 0,5 c 0,2.75 0.24431,5 0.54291,5 0.2986,0 2.8861,-1.76222 5.75,-3.91604 13.74587,-10.33771 32.95332,-10.68388 42.86466,-0.77255 1.65917,1.65917 3.53648,4.18036 4.1718,5.60263 0.73732,1.65062 1.33878,12.53271 1.66288,30.08596 l 0.50775,27.5 6,0.5 6,0.5 0,5.5 0,5.5 -20.25,0.27071 -20.25,0.2707 0,-5.97299 0,-5.97299 6.25,-0.29771 6.25,-0.29772 -0.0245,-23.5 c -0.0216,-20.6551 -0.24148,-23.90298 -1.81642,-26.82878 -5.08857,-9.45313 -22.02451,-7.46899 -33.42841,3.91633 l -4.26938,4.26243 0.26938,21.07501 0.26933,21.07501 6.25,0.29772 6.25,0.29771 0,5.95229 0,5.95228 -20,0 -20,0 0,-5.9501 z M 303.63737,748.86763 c -3.77578,-3.77578 -3.96096,-8.66498 -0.47083,-12.4309 5.38452,-5.80999 15.54775,-1.77634 15.54775,6.17068 0,4.48992 -4.59971,9.1833 -9,9.1833 -2.1525,0 -4.08193,-0.92808 -6.07692,-2.92308 z m 382,0 c -6.22748,-6.22747 -2.43642,-15.07692 6.45889,-15.07692 3.64104,0 4.85831,0.49001 6.54545,2.63486 2.02449,2.57372 2.69571,7.57772 1.4514,10.82034 -0.81045,2.11199 -5.57783,4.5448 -8.90608,4.5448 -1.56974,0 -3.80274,-1.17615 -5.54966,-2.92308 z m -35.73841,-35.09116 c -9.00319,-2.06355 -13.85285,-13.49594 -9.33306,-22.00136 7.24893,-13.64118 27.1318,-8.49097 27.14465,7.0312 0.008,10.21921 -8.25138,17.16138 -17.81159,14.97016 z m -312.28679,-2.27309 c -4.35568,-2.93208 -6.37369,-7.02987 -6.30936,-12.81182 0.17279,-15.52952 20.19978,-20.40347 26.78819,-6.51941 6.36574,13.41478 -8.46751,27.4168 -20.47883,19.33123 z M 809.4206,677.16369 c -0.38847,-0.38847 -0.70631,-16.38131 -0.70631,-35.53965 l 0,-34.83333 8.01279,0 8.0128,0 -0.2628,35.25 -0.26279,35.25 -7.04369,0.28965 c -3.87403,0.1593 -7.36153,-0.0282 -7.75,-0.41667 z m 49,0 c -0.38847,-0.38847 -0.70631,-16.38131 -0.70631,-35.53965 l 0,-34.83333 8.01279,0 8.0128,0 -0.2628,35.25 -0.26279,35.25 -7.04369,0.28965 c -3.87403,0.1593 -7.36153,-0.0282 -7.75,-0.41667 z m 48.96036,-0.0396 c -0.36667,-0.36671 -0.66667,-11.39171 -0.66667,-24.50005 l 0,-23.83333 7.5,0 7.5,0 0,24.5 0,24.5 -6.83333,0 c -3.75834,0 -7.13334,-0.3 -7.5,-0.66667 z m -24.66667,-24.33338 0,-24 7.5,0 7.5,0 0,24 0,24 -7.5,0 -7.5,0 0,-24 z M 743.2294,666.53247 c -5.3686,-1.41667 -14.64735,-10.72592 -16.30421,-16.35778 -5.5545,-18.88051 6.60432,-35.70765 26.84795,-37.15608 21.30782,-1.52456 34.70195,14.75594 26.4405,32.13831 -3.97986,8.37377 -14.02143,12.20262 -18.98504,7.23901 -2.33245,-2.33245 -2.43895,-2.34597 -4.09183,-0.51956 -3.98646,4.40498 -13.21667,3.14679 -15.96964,-2.17685 -6.42364,-12.42195 8.30453,-30.63964 18.61062,-23.02001 1.6151,1.19409 2.93654,1.7076 2.93654,1.14114 0,-0.56647 1.8,-1.02994 4,-1.02994 2.2,0 3.99325,0.1125 3.98499,0.25 -0.008,0.1375 -1.13319,3.85 -2.49986,8.25 -2.8638,9.22002 -3.09502,12.32873 -0.97741,13.14134 2.50958,0.96301 6.19335,-2.29174 8.02647,-7.09169 4.69321,-12.28899 -3.50372,-22.55746 -17.99608,-22.54407 -8.45749,0.008 -12.5827,1.40129 -17.83508,6.02462 -11.7557,10.34778 -9.86343,27.71925 3.79697,34.85717 4.12423,2.15502 6.31365,2.60655 12.5,2.57791 6.37043,-0.0295 8.4422,-0.50739 13.75594,-3.17315 6.24131,-3.1311 6.25858,-3.13351 7.38312,-1.03229 1.43811,2.68714 -0.92124,4.76667 -8.71757,7.68365 -6.0951,2.28047 -17.86044,2.65756 -24.90638,0.79827 z m 11.94167,-19.3414 c 2.55344,-2.55344 4.6613,-8.56841 4.33968,-12.38367 -0.78253,-9.28265 -11.79646,-1.11198 -11.79646,8.75119 0,4.91051 4.15479,6.93447 7.45678,3.63248 z m -161.95678,18.65374 c -5.38969,-1.29266 -9.45925,-4.0354 -12.25427,-8.25896 -2.35915,-3.56492 -2.74573,-5.16798 -2.74573,-11.38597 0,-6.43052 0.33427,-7.71011 3,-11.48397 8.46892,-11.9894 25.70313,-10.89386 32.25,2.05007 5.6727,11.2156 -0.1806,26.06469 -11.25,28.53982 -5.51754,1.23372 -5.98635,1.2618 -9,0.53901 z m -198.5,-1.17483 c -3.19445,-1.27005 -7.77536,-5.60749 -9.58928,-9.07961 -0.79899,-1.5294 -1.41072,-5.56198 -1.41072,-9.29966 0,-7.23845 1.29644,-10.58858 5.66072,-14.62781 4.21951,-3.90525 6.66324,-4.87219 12.31338,-4.87219 10.33524,0 17.95203,7.06414 18.81316,17.44813 0.75575,9.11335 -2.6648,15.91826 -9.84195,19.57977 -4.17326,2.12904 -11.71844,2.5319 -15.94531,0.85137 z m 439,-33.87927 0,-24 7.5,0 7.5,0 0,24 0,24 -7.5,0 -7.5,0 0,-24 z m -364.56196,3.1203 c -9.55598,-2.46794 -18.24928,-10.03558 -22.63024,-19.69996 -3.07703,-6.7879 -3.07972,-18.8634 -0.006,-25.74984 4.45004,-9.96912 12.48376,-17.00341 22.46046,-19.66628 6.52691,-1.74209 17.37452,-0.84242 23.0666,1.91307 4.09241,1.9811 4.82356,2.06028 7.35742,0.79686 19.97855,-9.96162 43.88372,1.73627 48.31489,23.64267 5.20945,25.75394 -22.24818,47.47458 -46.46963,36.76028 l -4.84578,-2.14352 -4.52172,2.18893 c -4.89099,2.36768 -17.075,3.41729 -22.72627,1.95779 z m 412.56196,-20.1203 0,-7 8,0 8,0 0,7 0,7 -8,0 -8,0 0,-7 z m 25,0 0,-7 20,0 20,0 0,7 0,7 -20,0 -20,0 0,-7 z"
         id="path3006"
         style="fill:#85a6c8"
         inkscape:connector-curvature="0" />
      <path
         d="m 77.214287,838.40471 c -26.75517,-6.50639 -39.52143,-37.59334 -25.79506,-62.81321 11.600815,-21.31452 42.848669,-27.42379 60.590693,-11.84608 l 3.70437,3.25247 0,-5.13181 0,-5.13181 13.75,0.27822 13.75,0.27822 0,5.5 0,5.5 -6,0.5 -6,0.5 0,28 0,28 6,0.5 6,0.5 0,5.5 0,5.5 -13.75,0.27822 -13.75,0.27822 0,-5.13181 0,-5.13181 -3.52781,3.09745 c -9.03909,7.93642 -22.171221,10.8367 -34.972193,7.72373 z m 24.234153,-13.96263 c 9.12823,-4.7596 14.42377,-13.618 15.03545,-25.15137 0.73695,-13.89559 -4.9532,-23.91277 -16.63495,-29.28487 -4.509497,-2.07378 -6.423668,-2.39139 -12,-1.99108 -8.109685,0.58217 -13.338699,3.10391 -18.862658,9.0967 -6.8879,7.47249 -9.058196,19.2197 -5.680644,30.74775 1.24902,4.26308 2.843012,6.65726 7.409788,11.12953 3.200141,3.13392 7.321533,6.15721 9.15865,6.71842 4.887179,1.49296 17.729004,0.73994 21.574364,-1.26508 z m 755.51701,13.89297 c -8.50783,-1.93096 -15.50829,-5.9511 -21.19177,-12.16973 -8.40211,-9.19325 -11.6993,-19.20807 -10.77304,-32.72183 0.43872,-6.40087 1.23361,-9.32025 4.13753,-15.19594 4.10562,-8.30716 12.26676,-16.53801 19.45168,-19.61782 14.26807,-6.11601 31.37329,-4.23207 41.88527,4.61318 1.66533,1.40129 3.30042,2.5478 3.63353,2.5478 0.3331,0 0.60564,-9.675 0.60564,-21.5 l 0,-21.5 -7,0 -7,0 0,-6 0,-6 14.5,0 14.5,0 0,57.5 0,57.5 6,0 6,0 0,6.02903 0,6.02902 -13.25,-0.27902 -13.25,-0.27903 -0.3075,-4.25 c -0.16912,-2.3375 -0.54759,-4.25 -0.84103,-4.25 -0.29345,0 -2.34504,1.55058 -4.55909,3.44572 -7.39756,6.33203 -20.60607,8.80747 -32.54122,6.09862 z m 22.24884,-13.43107 c 9.41863,-4.33917 15.45077,-13.69303 16.27697,-25.2402 0.72442,-10.1247 -1.76927,-16.9641 -8.72635,-23.93361 -6.63436,-6.64622 -11.75932,-8.47747 -21.53011,-7.69317 -15.06392,1.20919 -25.02818,13.16162 -24.80445,29.75371 0.16205,12.01793 6.14949,22.16605 15.70263,26.61439 6.4944,3.02407 17.10245,3.25335 23.08131,0.49888 z m 83,13.00813 c -3.3,-0.95487 -7.90356,-2.94781 -10.23013,-4.42876 -2.32657,-1.48095 -4.43556,-2.69264 -4.68664,-2.69264 -0.25108,0 -0.59752,1.4625 -0.76987,3.25 -0.31189,3.23474 -0.33918,3.25 -5.81336,3.25 l -5.5,0 -0.27988,-12.75 -0.27987,-12.75 5.9311,0 c 5.70081,0 6.01005,0.13381 7.96451,3.44638 6.0174,10.19872 24.59105,15.7217 35.78164,10.63987 5.01816,-2.27883 7.3825,-5.44126 7.3825,-9.8745 0,-7.23281 -3.30138,-9.03446 -22.5,-12.27884 -15.31209,-2.58759 -22.34833,-4.98283 -27.23092,-9.2698 -4.64318,-4.07677 -6.26908,-8.17849 -6.26908,-15.81527 0,-15.14676 9.64257,-22.99733 28.5,-23.2035 9.96476,-0.10895 15.44267,1.14891 20.78148,4.77193 3.88699,2.63779 4.71852,2.44694 4.71852,-1.08294 0,-2.16161 0.40476,-2.33333 5.5,-2.33333 l 5.50001,0 0,12.5 0,12.5 -5.75001,-0.0269 c -5.64626,-0.0264 -5.7951,-0.10075 -8.25,-4.12042 -6.03522,-9.88212 -19.55785,-14.57122 -29.74552,-10.31454 -5.14996,2.15179 -7.11364,4.19418 -7.86057,8.17567 -1.50104,8.00123 3.26381,11.00612 22.60609,14.25626 16.38537,2.75329 24.30618,5.40277 28.40471,9.5013 6.0853,6.08533 7.1393,16.642 2.5981,26.02289 -5.6865,11.74668 -23.91047,17.42818 -40.50281,12.62714 z m -781.24933,-1.66654 c -11.88482,-3.20031 -19.49445,-9.48193 -24.61541,-20.3196 -3.04842,-6.45147 -3.13526,-7.02304 -3.13526,-20.63526 l 0,-14 3.75017,-7.67222 c 4.25071,-8.69624 9.23279,-13.65548 17.74983,-17.66843 4.76688,-2.246 6.83294,-2.59271 15.5,-2.60111 8.31523,-0.008 10.87249,0.38087 15.1787,2.3085 2.84828,1.27501 5.94592,3.16598 6.88364,4.20215 2.17191,2.39993 3.43766,1.61643 3.43766,-2.12791 0,-2.89816 0.0801,-2.94098 5.5,-2.94098 l 5.5,0 0,14 0,14 -4.97432,0 c -4.51061,0 -5.11829,-0.2784 -6.5187,-2.9865 -4.82372,-9.32805 -12.65682,-14.34189 -22.50698,-14.40634 -10.33732,-0.0676 -17.52594,4.75562 -22.19639,14.89284 -1.91791,4.16283 -2.30361,6.67434 -2.30361,15 0,11.61545 1.80778,16.78907 7.95129,22.75558 9.81333,9.53058 28.28722,8.88838 39.96319,-1.38922 l 4.62029,-4.06694 3.89797,3.35029 c 2.14388,1.84266 3.93606,3.69536 3.98261,4.11711 0.0466,0.42176 -2.05285,2.81494 -4.66535,5.3182 -10.85291,10.39906 -28.33543,14.81848 -42.99933,10.86984 z m 79.70766,0.84899 c -4.70409,-0.73382 -7.87304,-4.33836 -8.95887,-10.19034 -0.5497,-2.96257 -0.99946,-17.25007 -0.99946,-31.75 l 0,-26.36351 -7,0 -7,0 0,-6 0,-6 6.97395,0 6.97396,0 0.27604,-15.25 0.27605,-15.25 7.25,-0.29381 7.25,-0.29381 0,15.54381 0,15.54381 8.0499,0 8.04991,0 -0.29991,5.75 -0.2999,5.75 -7.75,0.29206 -7.75,0.29207 0,25.95793 c 0,25.14255 0.0668,26.02476 2.12734,28.08528 1.8378,1.8378 2.92664,2.05487 8,1.59483 l 5.87266,-0.53251 0,6.28017 c 0,6.23379 -0.0231,6.28479 -3.125,6.90517 -3.26273,0.65255 -13.53904,0.61174 -17.91667,-0.0711 z m 35.04167,-6.20455 c 0,-5.25479 0.59395,-8.17659 2.49023,-12.25 3.35873,-7.21492 3.36581,-16.26864 0.0222,-28.35633 -2.70113,-9.76502 -3.42651,-24.39266 -1.42721,-28.78065 3.70842,-8.1391 22.87315,-8.21243 25.95775,-0.0993 1.86237,4.8984 1.08486,19.3351 -1.55538,28.87997 -3.34362,12.08769 -3.33654,21.14141 0.0222,28.35633 1.89628,4.07341 2.49023,6.99521 2.49023,12.25 l 0,6.9007 -14,0 -14,0 0,-6.9007 z m 74.22285,1.6507 c -2.69333,-6.59151 -20.17337,-51.11608 -23.35354,-59.48532 l -2.36931,-6.23533 -4.75,-0.0147 -4.75,-0.0147 0,-6 0,-6 18,0 18,0 0,6 0,6 -5.60699,0 c -4.9205,0 -5.52755,0.21426 -4.95815,1.75 5.09776,13.74945 18.21245,46.2409 18.66603,46.24481 0.49506,0.004 9.87494,-22.49969 18.02487,-43.24481 l 1.86609,-4.75 -5.99593,0 -5.99592,0 0,-6 0,-6 17.5,0 17.5,0 0,6 0,6 -5,0 c -2.75,0 -5,0.4534 -5,1.00755 0,0.55416 -6.15084,16.52916 -13.66853,35.5 l -13.66853,34.49245 -6.14746,0 -6.14745,0 -2.14518,-5.25 z m 87.27715,3.86984 c -16.18654,-4.35262 -25.53306,-13.60927 -29.53305,-29.24906 -6.93338,-27.10927 7.01644,-49.82003 32.92046,-53.59558 25.52231,-3.71991 45.61175,9.83532 50.03456,33.76054 0.59292,3.20737 1.07803,7.32393 1.07803,9.14792 l 0,3.31634 -35.125,0 -35.125,0 0.6452,3.22601 c 4.40201,22.01005 33.85875,29.41145 50.24946,12.62585 3.62844,-3.71587 3.99912,-3.85186 10.49898,-3.85186 6.6826,0 6.72801,0.0185 5.54706,2.26263 -4.74996,9.02612 -13.03763,16.46259 -22.62383,20.30021 -7.92239,3.17155 -20.93702,4.10869 -28.56687,2.057 z m 38.49023,-50.36984 c -0.0165,-2.95998 -4.57912,-11.60303 -7.61375,-14.42296 -4.72712,-4.39266 -10.87794,-6.3338 -19.87648,-6.27285 -6.65486,0.0451 -8.87232,0.50502 -13.18799,2.73542 -2.8534,1.47468 -6.39361,4.26188 -7.86714,6.19378 -2.55651,3.35175 -5.30732,9.59935 -5.40098,12.26661 -0.0341,0.97022 5.99937,1.25 26.95611,1.25 25.05134,0 26.99929,-0.1263 26.99023,-1.75 z m 27.00977,45.81886 0,-5.97343 6.25,-0.29771 6.25,-0.29772 0,-28 0,-28 -6.25,-0.29772 -6.25,-0.29771 0,-5.95229 0,-5.95228 13.5,0 13.5,0 0,5.5 c 0,3.025 0.28296,5.5 0.6288,5.5 0.34584,0 2.42933,-1.62668 4.62999,-3.61483 12.04777,-10.88444 31.36276,-12.27491 39.63505,-2.8533 1.70839,1.94575 3.11305,3.85956 3.12147,4.25293 0.008,0.39336 0.41807,1.35146 0.91033,2.12912 0.71273,1.12596 1.88065,0.54469 5.73469,-2.85415 9.67267,-8.53027 19.46694,-11.42074 30.75695,-9.07694 4.71185,0.97817 6.6521,2.03392 10.13043,5.51225 2.36629,2.36629 4.84958,6.03543 5.51843,8.15363 0.7675,2.43067 1.38431,13.53407 1.67215,30.10129 l 0.45607,26.25 5.90282,0 5.90282,0 0,6 0,6 -19.5,0 -19.5,0 0,-6 0,-6 6.07694,0 6.07694,0 -0.32694,-24.75 c -0.29462,-22.30346 -0.51393,-25.02585 -2.21856,-27.54061 -2.67379,-3.94451 -4.93354,-4.87433 -11.7667,-4.84165 -7.05697,0.0337 -12.42594,2.71592 -18.17532,9.0798 l -3.66636,4.05822 0,21.99712 0,21.99712 6,0 6,0 0,6 0,6 -20,0 -20,0 0,-6 0,-6 6.59085,0 6.59085,0 -0.35532,-24.25 c -0.45169,-30.82769 -1.22651,-32.77672 -13.01064,-32.72804 -6.70318,0.0277 -11.86242,2.37079 -18.58494,8.44043 l -5.26919,4.75747 0.26919,21.64007 0.2692,21.64007 6.29844,0.29897 6.29845,0.29898 -0.29845,5.70102 -0.29844,5.70103 -19.75,0.27114 -19.75,0.27114 0,-5.97342 z m 155.66667,5.26447 c -1.30241,-1.3024 -0.68996,-13.36815 0.79347,-15.63215 0.80307,-1.22565 2.17979,-5.03755 3.05937,-8.47089 1.45737,-5.68867 1.4606,-6.97375 0.0363,-14.48636 -0.8596,-4.53416 -2.23632,-10.45295 -3.05938,-13.15286 -0.84472,-2.77111 -1.49643,-8.75232 -1.49643,-13.73422 0,-8.21696 0.18956,-9.03684 2.75,-11.89416 5.84926,-6.52749 20.34175,-5.76531 24.10574,1.26775 1.96812,3.67746 1.00575,20.54058 -1.756,30.76956 -3.10416,11.49719 -3.04197,17.88545 0.25389,26.07846 1.94002,4.82257 2.64637,8.35919 2.64637,13.25 l 0,6.67154 -13.33333,0 c -7.33334,0 -13.63334,-0.3 -14,-0.66667 z m 44.33333,-5.33333 0,-6 6,0 6,0 0,-28.5 0,-28.5 -6,0 -6,0 0,-6 0,-6 13.4501,0 13.45009,0 0.29991,5.4382 0.2999,5.4382 5.87019,-4.39776 c 7.70212,-5.77017 14.20805,-7.95426 23.62981,-7.93271 12.43701,0.0284 21.39685,6.03032 23.91168,16.01758 0.64048,2.54359 1.08832,14.63306 1.08832,29.37931 l 0,25.05718 6,0 6,0 0,6 0,6 -19.5,0 -19.5,0 0,-6 0,-6 6,0 6,0 -0.006,-22.25 c -0.003,-12.2375 -0.46623,-23.90858 -1.02925,-25.93572 -0.56303,-2.02715 -2.39504,-4.83965 -4.07115,-6.25 -2.55488,-2.14979 -4.04532,-2.5627 -9.22075,-2.55451 -7.48057,0.0118 -14.01806,2.80517 -20.92327,8.94008 l -4.75,4.22012 0,21.91502 0,21.91501 6,0 6,0 0,6 0,6 -19.5,0 -19.5,0 0,-6 z M 303.63737,748.86763 c -3.77578,-3.77578 -3.96096,-8.66498 -0.47083,-12.4309 5.38452,-5.80999 15.54775,-1.77634 15.54775,6.17068 0,4.48992 -4.59971,9.1833 -9,9.1833 -2.1525,0 -4.08193,-0.92808 -6.07692,-2.92308 z m 384.18699,1.52757 c -6.52254,-3.61516 -6.52076,-12.94909 0.003,-15.65132 4.39557,-1.8207 9.58723,-0.43345 11.38446,3.04202 2.78709,5.38963 1.53042,9.90477 -3.47749,12.49446 -3.5259,1.82331 -4.79428,1.84172 -7.90995,0.11484 z M 337.61217,711.50338 c -4.35568,-2.93208 -6.37369,-7.02987 -6.30936,-12.81182 0.17279,-15.52952 20.19978,-20.40347 26.78819,-6.51941 6.36574,13.41478 -8.46751,27.4168 -20.47883,19.33123 z m 308.40067,0.32781 c -8.85618,-5.39992 -8.96866,-18.71798 -0.21331,-25.2548 8.57315,-6.40078 20.66087,-0.20185 21.62921,11.09208 1.0211,11.90934 -11.51497,20.19967 -21.4159,14.16272 z m 163.70145,-70.04048 0,-35 7.5,0 7.5,0 0,35 0,35 -7.5,0 -7.5,0 0,-35 z m 48,0 0,-35 8,0 8,0 0,35 0,35 -8,0 -8,0 0,-35 z m 25,11.5 0,-23.5 7,0 7,0 0,23.5 0,23.5 -7,0 -7,0 0,-23.5 z m 24,-0.5 0,-24 7.5,0 7.5,0 0,24 0,24 -7.5,0 -7.5,0 0,-24 z m -164.41878,13.04351 c -5.7793,-2.32446 -10.90944,-6.95672 -13.89171,-12.54351 -1.65923,-3.10829 -2.14129,-5.78341 -2.16237,-12 -0.0338,-9.97348 2.68819,-16.02534 9.70859,-21.58507 6.42843,-5.09093 10.75731,-6.41522 20.76427,-6.35224 10.00535,0.063 16.2719,2.51748 20.96575,8.21193 9.53211,11.5641 3.59572,31.13323 -9.9975,32.95646 -3.09547,0.4152 -4.26513,0.0629 -6.19318,-1.8651 l -2.37697,-2.37697 -3.34693,2.25549 c -3.99204,2.69024 -7.22795,2.85486 -11.10449,0.56493 -3.77449,-2.22965 -5.3062,-6.21602 -4.72251,-12.29064 0.8074,-8.40271 6.82302,-14.93109 14.00721,-15.20117 3.74949,-0.14096 7.75326,1.63918 7.79903,3.46756 0.0167,0.66815 0.48908,0.42732 1.04969,-0.53518 0.64989,-1.1158 2.23384,-1.75 4.3707,-1.75 l 3.35142,0 -2.85991,9.52558 c -2.94283,9.80179 -2.95522,12.47442 -0.0578,12.47442 4.77907,0 9.11552,-6.6761 9.11552,-14.03362 0,-19.63007 -32.18245,-22.74578 -42.33168,-4.09831 -1.99848,3.67188 -2.66832,6.32205 -2.66832,10.5571 0,17.8896 19.9193,27.1391 38.17233,17.72528 5.82066,-3.00195 5.83573,-3.00392 6.95709,-0.90862 0.92006,1.71915 0.78358,2.35881 -0.75281,3.52831 -7.73063,5.88453 -24.51333,8.00668 -33.79539,4.27338 z m 15.07022,-22.04351 c 3.38419,-7.07843 3.68223,-9.66633 1.37852,-11.97004 -1.65082,-1.65082 -2.418,-1.81028 -4.38897,-0.91224 -4.99166,2.27434 -8.61678,13.50649 -5.39801,16.72526 2.54901,2.54901 6.13632,0.90947 8.40846,-3.84298 z m -362.65144,20.87927 c -3.19445,-1.27005 -7.77536,-5.60749 -9.58928,-9.07961 -0.79899,-1.5294 -1.41072,-5.56198 -1.41072,-9.29966 0,-7.23845 1.29644,-10.58858 5.66072,-14.62781 4.21951,-3.90525 6.66324,-4.87219 12.31338,-4.87219 10.33524,0 17.95203,7.06414 18.81316,17.44813 0.75575,9.11335 -2.6648,15.91826 -9.84195,19.57977 -4.17326,2.12904 -11.71844,2.5319 -15.94531,0.85137 z m 194.5,-0.24167 c -6.4501,-2.99722 -11.5,-11.07424 -11.5,-18.39359 0,-5.08077 3.62428,-11.93146 8.26535,-15.62334 2.98377,-2.37353 4.99968,-3.08455 9.71177,-3.4254 5.06492,-0.36636 6.60484,-0.0443 10.38798,2.1728 5.34389,3.13173 9.6349,10.76163 9.6349,17.13193 0,5.56857 -4.08785,13.40592 -8.5764,16.44295 -4.38621,2.96778 -13.35824,3.81607 -17.9236,1.69465 z m 244.5,-33.6376 0,-24 7.5,0 7.5,0 0,24 0,24 -7.5,0 -7.5,0 0,-24 z m -366.64703,1.99985 c -8.17995,-2.67364 -15.67755,-9.3928 -19.5023,-17.47749 -2.40073,-5.07462 -2.84922,-7.29552 -2.84988,-14.11264 -6.9e-4,-7.02321 0.4025,-8.89733 3.05685,-14.20915 5.66096,-11.32859 17.93693,-19.20057 29.94236,-19.20057 4.05415,0 16.57771,3.5077 17.42641,4.88093 0.28101,0.45468 -1.40999,2.83145 -3.75777,5.28173 -6.99639,7.30183 -9.12891,12.75346 -9.12891,23.33734 0,10.61295 2.13158,16.03453 9.20786,23.41975 3.99231,4.16659 4.2045,4.64211 2.59622,5.81812 -5.41253,3.95773 -18.45784,5.051 -26.99084,2.26198 z m 38.14703,0.60784 c -2.2,-0.69219 -5.02863,-1.81155 -6.28584,-2.48747 -2.27831,-1.2249 -2.27069,-1.24368 2.31758,-5.70296 6.80192,-6.61071 9.82976,-13.97789 9.82976,-23.91726 0,-9.99868 -3.0174,-17.28761 -9.8777,-23.86093 l -4.68137,-4.48554 2.84878,-1.42111 c 20.01023,-9.982 43.91504,1.69812 48.35023,23.6244 4.82755,23.86592 -19.27553,45.55844 -42.50144,38.25087 z m 377.5,-19.60769 0,-7 7.5,0 7.5,0 0,7 0,7 -7.5,0 -7.5,0 0,-7 z m 24,0 0,-7 20,0 20,0 0,7 0,7 -20,0 -20,0 0,-7 z"
         id="path3004"
         style="fill:#b5c44d"
         inkscape:connector-curvature="0" />
      <path
         d="m 856.96545,838.33505 c -8.50783,-1.93096 -15.50829,-5.9511 -21.19177,-12.16973 -8.40211,-9.19325 -11.6993,-19.20807 -10.77304,-32.72183 0.43872,-6.40087 1.23361,-9.32025 4.13753,-15.19594 4.10562,-8.30716 12.26676,-16.53801 19.45168,-19.61782 14.26807,-6.11601 31.37329,-4.23207 41.88527,4.61318 1.66533,1.40129 3.30042,2.5478 3.63353,2.5478 0.3331,0 0.60564,-9.675 0.60564,-21.5 l 0,-21.5 -7,0 -7,0 0,-6 0,-6 14.5,0 14.5,0 0,57.5 0,57.5 6,0 6,0 0,6.02903 0,6.02902 -13.25,-0.27902 -13.25,-0.27903 -0.3075,-4.25 c -0.16912,-2.3375 -0.54759,-4.25 -0.84103,-4.25 -0.29345,0 -2.34504,1.55058 -4.55909,3.44572 -7.39756,6.33203 -20.60607,8.80747 -32.54122,6.09862 z m 22.24884,-13.43107 c 9.41863,-4.33917 15.45077,-13.69303 16.27697,-25.2402 0.72442,-10.1247 -1.76927,-16.9641 -8.72635,-23.93361 -6.63436,-6.64622 -11.75932,-8.47747 -21.53011,-7.69317 -15.06392,1.20919 -25.02818,13.16162 -24.80445,29.75371 0.16205,12.01793 6.14949,22.16605 15.70263,26.61439 6.4944,3.02407 17.10245,3.25335 23.08131,0.49888 z m 83,13.00813 c -3.3,-0.95487 -7.90356,-2.94781 -10.23013,-4.42876 -2.32657,-1.48095 -4.43556,-2.69264 -4.68664,-2.69264 -0.25108,0 -0.59752,1.4625 -0.76987,3.25 -0.31189,3.23474 -0.33918,3.25 -5.81336,3.25 l -5.5,0 -0.27988,-12.75 -0.27987,-12.75 5.9311,0 c 5.70081,0 6.01005,0.13381 7.96451,3.44638 6.0174,10.19872 24.59105,15.7217 35.78164,10.63987 5.01816,-2.27883 7.3825,-5.44126 7.3825,-9.8745 0,-7.23281 -3.30138,-9.03446 -22.5,-12.27884 -15.31209,-2.58759 -22.34833,-4.98283 -27.23092,-9.2698 -4.64318,-4.07677 -6.26908,-8.17849 -6.26908,-15.81527 0,-15.14676 9.64257,-22.99733 28.5,-23.2035 9.96476,-0.10895 15.44267,1.14891 20.78148,4.77193 3.88699,2.63779 4.71852,2.44694 4.71852,-1.08294 0,-2.16161 0.40476,-2.33333 5.5,-2.33333 l 5.50001,0 0,12.5 0,12.5 -5.75001,-0.0269 c -5.64626,-0.0264 -5.7951,-0.10075 -8.25,-4.12042 -6.03522,-9.88212 -19.55785,-14.57122 -29.74552,-10.31454 -5.14996,2.15179 -7.11364,4.19418 -7.86057,8.17567 -1.50104,8.00123 3.26381,11.00612 22.60609,14.25626 16.38537,2.75329 24.30618,5.40277 28.40471,9.5013 6.0853,6.08533 7.1393,16.642 2.5981,26.02289 -5.6865,11.74668 -23.91047,17.42818 -40.50281,12.62714 z m -439.5,-6.05254 0,-5.97343 6.25,-0.29771 6.25,-0.29772 0,-28 0,-28 -6.25,-0.29772 -6.25,-0.29771 0,-5.95229 0,-5.95228 13.5,0 13.5,0 0,5.5 c 0,3.025 0.28296,5.5 0.6288,5.5 0.34584,0 2.42933,-1.62668 4.62999,-3.61483 12.04777,-10.88444 31.36276,-12.27491 39.63505,-2.8533 1.70839,1.94575 3.11305,3.85956 3.12147,4.25293 0.008,0.39336 0.41807,1.35146 0.91033,2.12912 0.71273,1.12596 1.88065,0.54469 5.73469,-2.85415 9.67267,-8.53027 19.46694,-11.42074 30.75695,-9.07694 4.71185,0.97817 6.6521,2.03392 10.13043,5.51225 2.36629,2.36629 4.84958,6.03543 5.51843,8.15363 0.7675,2.43067 1.38431,13.53407 1.67215,30.10129 l 0.45607,26.25 5.90282,0 5.90282,0 0,6 0,6 -19.5,0 -19.5,0 0,-6 0,-6 6.07694,0 6.07694,0 -0.32694,-24.75 c -0.29462,-22.30346 -0.51393,-25.02585 -2.21856,-27.54061 -2.67379,-3.94451 -4.93354,-4.87433 -11.7667,-4.84165 -7.05697,0.0337 -12.42594,2.71592 -18.17532,9.0798 l -3.66636,4.05822 0,21.99712 0,21.99712 6,0 6,0 0,6 0,6 -20,0 -20,0 0,-6 0,-6 6.59085,0 6.59085,0 -0.35532,-24.25 c -0.45169,-30.82769 -1.22651,-32.77672 -13.01064,-32.72804 -6.70318,0.0277 -11.86242,2.37079 -18.58494,8.44043 l -5.26919,4.75747 0.26919,21.64007 0.2692,21.64007 6.29844,0.29897 6.29845,0.29898 -0.29845,5.70102 -0.29844,5.70103 -19.75,0.27114 -19.75,0.27114 0,-5.97342 z m 155.66667,5.26447 c -1.30241,-1.3024 -0.68996,-13.36815 0.79347,-15.63215 0.80307,-1.22565 2.17979,-5.03755 3.05937,-8.47089 1.45737,-5.68867 1.4606,-6.97375 0.0363,-14.48636 -0.8596,-4.53416 -2.23632,-10.45295 -3.05938,-13.15286 -0.84472,-2.77111 -1.49643,-8.75232 -1.49643,-13.73422 0,-8.21696 0.18956,-9.03684 2.75,-11.89416 5.84926,-6.52749 20.34175,-5.76531 24.10574,1.26775 1.96812,3.67746 1.00575,20.54058 -1.756,30.76956 -3.10416,11.49719 -3.04197,17.88545 0.25389,26.07846 1.94002,4.82257 2.64637,8.35919 2.64637,13.25 l 0,6.67154 -13.33333,0 c -7.33334,0 -13.63334,-0.3 -14,-0.66667 z m 44.33333,-5.33333 0,-6 6,0 6,0 0,-28.5 0,-28.5 -6,0 -6,0 0,-6 0,-6 13.4501,0 13.45009,0 0.29991,5.4382 0.2999,5.4382 5.87019,-4.39776 c 7.70212,-5.77017 14.20805,-7.95426 23.62981,-7.93271 12.43701,0.0284 21.39685,6.03032 23.91168,16.01758 0.64048,2.54359 1.08832,14.63306 1.08832,29.37931 l 0,25.05718 6,0 6,0 0,6 0,6 -19.5,0 -19.5,0 0,-6 0,-6 6,0 6,0 -0.006,-22.25 c -0.003,-12.2375 -0.46623,-23.90858 -1.02925,-25.93572 -0.56303,-2.02715 -2.39504,-4.83965 -4.07115,-6.25 -2.55488,-2.14979 -4.04532,-2.5627 -9.22075,-2.55451 -7.48057,0.0118 -14.01806,2.80517 -20.92327,8.94008 l -4.75,4.22012 0,21.91502 0,21.91501 6,0 6,0 0,6 0,6 -19.5,0 -19.5,0 0,-6 z M 687.82436,750.3952 c -6.52254,-3.61516 -6.52076,-12.94909 0.003,-15.65132 4.39557,-1.8207 9.58723,-0.43345 11.38446,3.04202 2.78709,5.38963 1.53042,9.90477 -3.47749,12.49446 -3.5259,1.82331 -4.79428,1.84172 -7.90995,0.11484 z m -41.81152,-38.56401 c -8.85618,-5.39992 -8.96866,-18.71798 -0.21331,-25.2548 8.57315,-6.40078 20.66087,-0.20185 21.62921,11.09208 1.0211,11.90934 -11.51497,20.19967 -21.4159,14.16272 z m 163.70145,-70.04048 0,-35 7.5,0 7.5,0 0,35 0,35 -7.5,0 -7.5,0 0,-35 z m 48,0 0,-35 7.5,0 7.5,0 0,35 0,35 -7.5,0 -7.5,0 0,-35 z m 25,11.5 0,-23.5 7,0 7,0 0,23.5 0,23.5 -7,0 -7,0 0,-23.5 z m 24,-0.5 0,-24 7.5,0 7.5,0 0,24 0,24 -7.5,0 -7.5,0 0,-24 z m -164.41878,13.04351 c -5.7793,-2.32446 -10.90944,-6.95672 -13.89171,-12.54351 -1.65923,-3.10829 -2.14129,-5.78341 -2.16237,-12 -0.0338,-9.97348 2.68819,-16.02534 9.70859,-21.58507 6.42843,-5.09093 10.75731,-6.41522 20.76427,-6.35224 10.00535,0.063 16.2719,2.51748 20.96575,8.21193 9.53211,11.5641 3.59572,31.13323 -9.9975,32.95646 -3.09547,0.4152 -4.26513,0.0629 -6.19318,-1.8651 l -2.37697,-2.37697 -3.34693,2.25549 c -3.99204,2.69024 -7.22795,2.85486 -11.10449,0.56493 -3.77449,-2.22965 -5.3062,-6.21602 -4.72251,-12.29064 0.8074,-8.40271 6.82302,-14.93109 14.00721,-15.20117 3.74949,-0.14096 7.75326,1.63918 7.79903,3.46756 0.0167,0.66815 0.48908,0.42732 1.04969,-0.53518 0.64989,-1.1158 2.23384,-1.75 4.3707,-1.75 l 3.35142,0 -2.85991,9.52558 c -2.94283,9.80179 -2.95522,12.47442 -0.0578,12.47442 4.77907,0 9.11552,-6.6761 9.11552,-14.03362 0,-19.63007 -32.18245,-22.74578 -42.33168,-4.09831 -1.99848,3.67188 -2.66832,6.32205 -2.66832,10.5571 0,17.8896 19.9193,27.1391 38.17233,17.72528 5.82066,-3.00195 5.83573,-3.00392 6.95709,-0.90862 0.92006,1.71915 0.78358,2.35881 -0.75281,3.52831 -7.73063,5.88453 -24.51333,8.00668 -33.79539,4.27338 z m 15.07022,-22.04351 c 3.38419,-7.07843 3.68223,-9.66633 1.37852,-11.97004 -1.65082,-1.65082 -2.418,-1.81028 -4.38897,-0.91224 -4.99166,2.27434 -8.61678,13.50649 -5.39801,16.72526 2.54901,2.54901 6.13632,0.90947 8.40846,-3.84298 z m -168.15144,20.6376 c -6.4501,-2.99722 -11.5,-11.07424 -11.5,-18.39359 0,-5.08077 3.62428,-11.93146 8.26535,-15.62334 2.98377,-2.37353 4.99968,-3.08455 9.71177,-3.4254 5.06492,-0.36636 6.60484,-0.0443 10.38798,2.1728 5.34389,3.13173 9.6349,10.76163 9.6349,17.13193 0,5.56857 -4.08785,13.40592 -8.5764,16.44295 -4.38621,2.96778 -13.35824,3.81607 -17.9236,1.69465 z m 244.5,-33.6376 0,-24 7.5,0 7.5,0 0,24 0,24 -7.5,0 -7.5,0 0,-24 z m -366.64703,1.99985 c -8.17995,-2.67364 -15.67755,-9.3928 -19.5023,-17.47749 -2.40073,-5.07462 -2.84922,-7.29552 -2.84988,-14.11264 -6.9e-4,-7.02321 0.4025,-8.89733 3.05685,-14.20915 5.66096,-11.32859 17.93693,-19.20057 29.94236,-19.20057 4.05415,0 16.57771,3.5077 17.42641,4.88093 0.28101,0.45468 -1.40999,2.83145 -3.75777,5.28173 -6.99639,7.30183 -9.12891,12.75346 -9.12891,23.33734 0,10.61295 2.13158,16.03453 9.20786,23.41975 3.99231,4.16659 4.2045,4.64211 2.59622,5.81812 -5.41253,3.95773 -18.45784,5.051 -26.99084,2.26198 z m 415.64703,-18.99985 0,-7 7.5,0 7.5,0 0,7 0,7 -7.5,0 -7.5,0 0,-7 z m 24,0 0,-7 20,0 20,0 0,7 0,7 -20,0 -20,0 0,-7 z"
         id="path3002"
         style="fill:#4994bd"
         inkscape:connector-curvature="0" />
      <path
         d="m 963.62363,838.01702 c -3.62487,-0.98028 -8.7761,-3.20394 -11.4472,-4.94147 -2.67109,-1.73752 -5.21779,-2.93586 -5.65933,-2.66297 -0.44155,0.27289 -0.80281,1.81961 -0.80281,3.43715 0,2.89816 -0.0801,2.94098 -5.5,2.94098 l -5.5,0 0,-12.5 0,-12.5 6,0 c 3.3,0 6,0.38664 6,0.85921 0,2.03501 8.14435,9.85837 12.55711,12.06221 5.68205,2.83775 16.7865,3.88345 23.10154,2.17545 5.06515,-1.36994 10.34135,-6.93584 10.34135,-10.90916 0,-5.50937 -4.72553,-9.37596 -13,-10.63704 -9.48822,-1.44607 -29.47566,-5.73291 -31.44155,-6.74348 -8.50879,-4.37396 -12.54907,-10.79643 -12.46041,-19.80719 0.0677,-6.87827 1.57598,-11.118 5.39464,-15.16387 8.4166,-8.9174 28.40589,-10.97513 41.61117,-4.2835 2.69288,1.36458 4.89615,2.95004 4.89615,3.52323 0,0.5732 0.45,0.76406 1,0.42414 0.55,-0.33992 1,-1.71648 1,-3.05902 0,-2.2921 0.33546,-2.44098 5.5,-2.44098 l 5.50001,0 0,11.5 0,11.5 -5.75001,-0.0744 c -5.6924,-0.0737 -5.79007,-0.12536 -9.75,-5.16139 -5.03863,-6.40787 -10.12852,-9.0821 -18.27313,-9.60071 -11.60975,-0.73925 -18.22687,3.6581 -18.22687,12.11253 0,3.71594 2.65981,6.8936 7.21446,8.61909 1.49295,0.56559 8.91795,2.13422 16.5,3.48584 22.30264,3.97581 28.45325,7.17424 31.74665,16.50894 1.9346,5.48313 1.9265,7.42934 -0.059,14.1786 -4.17961,14.20872 -22.57518,22.00336 -40.49288,17.15781 z m -108.90934,-0.60259 c -25.42916,-7.38479 -37.06796,-35.45864 -24.9257,-60.12308 11.07464,-22.4958 42.59649,-29.11165 61.78314,-12.96714 l 3.14256,2.64429 0,-22.0889 0,-22.08889 -6.5,0 -6.5,0 0,-6 0,-6 14,0 14,0 0,57.5 0,57.5 6,0 6,0 0,5.5 0,5.5 -13.5,0 -13.5,0 0,-4.60359 0,-4.60359 -3.3511,2.9423 c -6.44459,5.65843 -12.19511,7.67651 -22.6489,7.94837 -5.6155,0.14604 -11.34003,-0.2873 -14,-1.05977 z m 25.87861,-12.9604 c 20.4224,-10.01057 20.38217,-43.87966 -0.0642,-54.06853 -6.89192,-3.43438 -17.97642,-3.66295 -24.4995,-0.50517 -6.59567,3.1929 -12.83716,10.96602 -14.88759,18.54092 -6.89676,25.4787 16.80985,47.13108 39.45132,36.03278 z m -357.87861,6.83668 0,-5.5 6.5,0 6.5,0 0,-28.5 0,-28.5 -6.5,0 -6.5,0 0,-5.5 0,-5.5 13.5,0 13.5,0 0,5 c 0,2.75 0.23824,5 0.52942,5 0.29118,0 2.87868,-1.86452 5.75,-4.14338 8.75388,-6.94762 17.75356,-9.55718 26.94722,-7.81364 8.29387,1.5729 12.37246,4.99317 16.41584,13.76617 0.0784,0.17003 2.10337,-1.54045 4.5,-3.80107 14.86923,-14.02538 37.53083,-13.90322 45.08777,0.24304 2.16003,4.0435 2.29392,5.57818 2.76975,31.74888 l 0.5,27.5 6.25,0.29772 6.25,0.29771 0,5.45229 0,5.45228 -19.5,0 -19.5,0 0,-5.5 0,-5.5 6,0 6,0 0,-23.53212 c 0,-24.87057 -0.46758,-27.95803 -4.8214,-31.83614 -2.72162,-2.42425 -9.90693,-3.20239 -14.81002,-1.60387 -5.50571,1.79499 -11.94075,6.44862 -14.86218,10.7479 -2.48101,3.65114 -2.5064,3.90392 -2.5064,24.95636 l 0,21.26787 6.5,0 6.5,0 0,5.5 0,5.5 -20,0 -20,0 0,-5.5 0,-5.5 6.5,0 6.5,0 -0.0239,-22.25 c -0.0131,-12.2375 -0.43956,-24.05 -0.94764,-26.25 -2.7556,-11.93169 -17.58006,-12.36458 -29.98939,-0.87572 l -6.03907,5.59115 0,21.89228 0,21.89229 6,0 6,0 0,5.5 0,5.5 -19.5,0 -19.5,0 0,-5.5 z m 156,-1.37288 c 0,-4.99296 0.61144,-8.20691 2.2354,-11.75 2.89,-6.30531 2.8492,-16.79069 -0.10813,-27.78708 -2.32257,-8.63617 -2.97085,-26.14527 -1.09763,-29.64543 3.54275,-6.61969 19.66231,-6.5056 24.33967,0.17226 2.11531,3.02004 2.27688,19.07011 0.2417,24.01101 -2.17984,5.29209 -4.90773,20.65621 -4.31549,24.3058 0.29497,1.81766 1.69915,6.21148 3.12039,9.76404 1.71578,4.28878 2.58409,8.36496 2.58409,12.13074 l 0,5.67154 -13.5,0 -13.5,0 0,-6.87288 z m 44,1.4206 0,-5.45229 6.25,-0.29771 6.25,-0.29772 0,-28 0,-28 -6.25,-0.29772 -6.25,-0.29771 0,-5.45229 0,-5.45228 13.5,0 13.5,0 0,5.57792 0,5.57793 4.21958,-3.61181 c 15.04646,-12.8792 37.53456,-13.16432 46.25107,-0.58639 3.73692,5.39237 4.52935,11.98446 4.52935,37.67884 l 0,23.36351 6,0 6,0 0,5.5 0,5.5 -19.5,0 -19.5,0 0,-5.5 0,-5.5 6,0 6,0 -0.0564,-23.25 c -0.0371,-15.30405 -0.46436,-24.41415 -1.25,-26.65634 -1.87549,-5.35252 -5.73172,-7.59685 -13.01689,-7.57586 -7.55864,0.0218 -14.06818,2.92175 -20.92667,9.32274 l -4.75,4.43314 0,21.86316 0,21.86316 6,0 6,0 0,5.5 0,5.5 -19.5,0 -19.5,0 0,-5.45228 z m -34.70676,-81.17445 c -2.09928,-1.03512 -3.59564,-2.75951 -4.33279,-4.99309 -2.29891,-6.96577 5.04142,-13.40556 11.66284,-10.232 6.57782,3.15267 6.53562,12.12494 -0.0718,15.26036 -4.00384,1.89995 -3.32684,1.90324 -7.25826,-0.0353 z m -39.79324,-37.73852 c -5.27378,-2.42551 -7.79322,-6.06475 -8.22247,-11.87706 -0.53317,-7.21952 1.8144,-11.55888 7.88255,-14.57045 4.01518,-1.99269 5.19807,-2.16789 8.54763,-1.26595 9.35726,2.51965 13.4043,12.83376 8.70306,22.18021 -2.70968,5.38707 -11.19316,8.16289 -16.91077,5.53325 z m 161.5,-70.63475 0,-35 7.5,0 7.5,0 0,35 0,35 -7.5,0 -7.5,0 0,-35 z m 48,0 0,-35 7.5,0 7.5,0 0,35 0,35 -7.5,0 -7.5,0 0,-35 z m 25,11.5 0,-23.5 7,0 7,0 0,23.5 0,23.5 -7,0 -7,0 0,-23.5 z m 24,-0.5 0,-24 7.5,0 7.5,0 0,24 0,24 -7.5,0 -7.5,0 0,-24 z m -163.03062,13.52231 c -5.6847,-1.8255 -12.36908,-7.47593 -15.23656,-12.87976 -1.72953,-3.25933 -2.20189,-5.8482 -2.21551,-12.14255 -0.0151,-6.99923 0.35016,-8.66332 2.92017,-13.30245 5.95017,-10.74069 19.25191,-16.68474 32.32594,-14.44525 13.28363,2.27539 20.70476,10.10396 20.61498,21.7468 -0.0511,6.61961 -1.66764,10.5512 -6.03912,14.68728 -5.43129,5.13882 -13.09839,6.00076 -15.38429,1.72953 -1.00221,-1.87267 -1.10508,-1.86482 -4.04472,0.30855 -1.92149,1.42062 -4.44899,2.23009 -6.96331,2.23009 -11.174,0 -13.36277,-16.61421 -3.34725,-25.40795 4.32917,-3.80107 11.16083,-4.28606 14.42297,-1.02392 1.71384,1.71384 2.1119,1.79018 2.60699,0.5 0.35848,-0.93418 1.84861,-1.52268 3.85553,-1.52268 l 3.27122,0 -2.97028,9.53888 c -1.63365,5.24639 -2.71797,10.19639 -2.40959,11 0.97501,2.54084 5.26275,1.6785 8.03485,-1.61595 3.23285,-3.84203 3.96255,-6.67936 3.35198,-13.03371 -1.26395,-13.15415 -19.24389,-18.99681 -33.46523,-10.87466 -5.81199,3.31936 -8.99175,7.25463 -10.75296,13.30786 -2.96739,10.19881 1.21868,19.84572 10.8306,24.95943 3.3068,1.75928 5.80889,2.19653 12.62421,2.20615 7.62435,0.0108 9.07846,-0.30537 14.11514,-3.06877 5.29721,-2.90635 5.67939,-2.97789 6.75,-1.26357 0.62417,0.99946 1.13486,2.07195 1.13486,2.38331 0,0.31136 -3.01707,1.97797 -6.70461,3.70357 -8.01978,3.75291 -19.7032,4.72764 -27.32601,2.27977 z m 10.17921,-17.60183 c 2.24344,-1.20066 6.82643,-10.25424 6.84164,-13.51549 0.005,-1.15226 -0.89206,-2.91116 -1.99429,-3.90867 -2.7823,-2.51794 -6.30041,-0.78 -8.95521,4.42385 -2.46904,4.8397 -2.6245,9.77729 -0.38574,12.25109 1.94406,2.14817 1.89494,2.13998 4.4936,0.74922 z M 590.39809,664.3419 c -4.84783,-1.72896 -7.37512,-4.02936 -9.93307,-9.04138 -4.41691,-8.65443 -1.52296,-19.98747 6.44993,-25.25869 3.43659,-2.27208 5.2492,-2.74796 10.40982,-2.733 5.45173,0.0158 6.73591,0.40749 10.06909,3.07111 5.83251,4.66087 7.482,8.60517 7.11087,17.00369 -0.26502,5.99708 -0.75722,7.67475 -3.18585,10.85885 -5.03864,6.606 -12.99569,8.92586 -20.92079,6.09942 z m 243.3162,-33.55119 0,-24 7.5,0 7.5,0 0,24 0,24 -7.5,0 -7.5,0 0,-24 z m -361.9501,2.95101 c -6.7229,-1.38238 -14.85954,-5.911 -18.72155,-10.4199 -5.97695,-6.97808 -7.67489,-11.85211 -7.67489,-22.03111 0,-7.07007 0.45268,-9.96496 2.11106,-13.5 4.72752,-10.07732 13.47503,-16.68758 25.39046,-19.18686 4.77122,-1.00078 6.57764,-0.91167 12.16193,0.59993 3.60712,0.9764 7.32993,2.33943 8.27291,3.02895 1.55753,1.1389 1.32503,1.64313 -2.5397,5.50786 -6.60817,6.60817 -9.44905,13.79994 -9.39277,23.77809 0.0405,7.17886 0.45356,9.05503 3.23967,14.7144 1.78411,3.62405 4.82816,7.84844 6.89812,9.57287 3.5911,2.99167 3.6444,3.13157 1.73576,4.55605 -4.12849,3.08125 -14.78134,4.75732 -21.481,3.37972 z m 410.9501,-19.95101 0,-7 7.5,0 7.5,0 0,7 0,7 -7.5,0 -7.5,0 0,-7 z m 24,0 0,-7 20,0 20,0 0,7 0,7 -20,0 -20,0 0,-7 z"
         id="path3000"
         style="fill:#c33357"
         inkscape:connector-curvature="0" />
      <path
         d="m 963.62363,838.01702 c -3.62487,-0.98028 -8.7761,-3.20394 -11.4472,-4.94147 -2.67109,-1.73752 -5.21779,-2.93586 -5.65933,-2.66297 -0.44155,0.27289 -0.80281,1.81961 -0.80281,3.43715 0,2.89816 -0.0801,2.94098 -5.5,2.94098 l -5.5,0 0,-12.5 0,-12.5 6,0 c 3.3,0 6,0.38664 6,0.85921 0,2.03501 8.14435,9.85837 12.55711,12.06221 5.68205,2.83775 16.7865,3.88345 23.10154,2.17545 5.06515,-1.36994 10.34135,-6.93584 10.34135,-10.90916 0,-5.50937 -4.72553,-9.37596 -13,-10.63704 -9.48822,-1.44607 -29.47566,-5.73291 -31.44155,-6.74348 -8.50879,-4.37396 -12.54907,-10.79643 -12.46041,-19.80719 0.0677,-6.87827 1.57598,-11.118 5.39464,-15.16387 8.4166,-8.9174 28.40589,-10.97513 41.61117,-4.2835 2.69288,1.36458 4.89615,2.95004 4.89615,3.52323 0,0.5732 0.45,0.76406 1,0.42414 0.55,-0.33992 1,-1.71648 1,-3.05902 0,-2.2921 0.33546,-2.44098 5.5,-2.44098 l 5.50001,0 0,11.5 0,11.5 -5.75001,-0.0744 c -5.6924,-0.0737 -5.79007,-0.12536 -9.75,-5.16139 -5.03863,-6.40787 -10.12852,-9.0821 -18.27313,-9.60071 -11.60975,-0.73925 -18.22687,3.6581 -18.22687,12.11253 0,3.71594 2.65981,6.8936 7.21446,8.61909 1.49295,0.56559 8.91795,2.13422 16.5,3.48584 22.30264,3.97581 28.45325,7.17424 31.74665,16.50894 1.9346,5.48313 1.9265,7.42934 -0.059,14.1786 -4.17961,14.20872 -22.57518,22.00336 -40.49288,17.15781 z m -108.90934,-0.60259 c -25.42916,-7.38479 -37.06796,-35.45864 -24.9257,-60.12308 11.07464,-22.4958 42.59649,-29.11165 61.78314,-12.96714 l 3.14256,2.64429 0,-22.0889 0,-22.08889 -6.5,0 -6.5,0 0,-6 0,-6 14,0 14,0 0,57.5 0,57.5 6,0 6,0 0,5.5 0,5.5 -13.5,0 -13.5,0 0,-4.60359 0,-4.60359 -3.3511,2.9423 c -6.44459,5.65843 -12.19511,7.67651 -22.6489,7.94837 -5.6155,0.14604 -11.34003,-0.2873 -14,-1.05977 z m 25.87861,-12.9604 c 20.4224,-10.01057 20.38217,-43.87966 -0.0642,-54.06853 -6.89192,-3.43438 -17.97642,-3.66295 -24.4995,-0.50517 -6.59567,3.1929 -12.83716,10.96602 -14.88759,18.54092 -6.89676,25.4787 16.80985,47.13108 39.45132,36.03278 z m -357.87861,6.83668 0,-5.5 6.5,0 6.5,0 0,-28.5 0,-28.5 -6.5,0 -6.5,0 0,-5.5 0,-5.5 13.5,0 13.5,0 0,5 c 0,2.75 0.23824,5 0.52942,5 0.29118,0 2.87868,-1.86452 5.75,-4.14338 8.75388,-6.94762 17.75356,-9.55718 26.94722,-7.81364 8.29387,1.5729 12.37246,4.99317 16.41584,13.76617 0.0784,0.17003 2.10337,-1.54045 4.5,-3.80107 14.86923,-14.02538 37.53083,-13.90322 45.08777,0.24304 2.16003,4.0435 2.29392,5.57818 2.76975,31.74888 l 0.5,27.5 6.25,0.29772 6.25,0.29771 0,5.45229 0,5.45228 -19.5,0 -19.5,0 0,-5.5 0,-5.5 6,0 6,0 0,-23.53212 c 0,-24.87057 -0.46758,-27.95803 -4.8214,-31.83614 -2.72162,-2.42425 -9.90693,-3.20239 -14.81002,-1.60387 -5.50571,1.79499 -11.94075,6.44862 -14.86218,10.7479 -2.48101,3.65114 -2.5064,3.90392 -2.5064,24.95636 l 0,21.26787 6.5,0 6.5,0 0,5.5 0,5.5 -20,0 -20,0 0,-5.5 0,-5.5 6.5,0 6.5,0 -0.0239,-22.25 c -0.0131,-12.2375 -0.43956,-24.05 -0.94764,-26.25 -2.7556,-11.93169 -17.58006,-12.36458 -29.98939,-0.87572 l -6.03907,5.59115 0,21.89228 0,21.89229 6,0 6,0 0,5.5 0,5.5 -19.5,0 -19.5,0 0,-5.5 z m 156,-1.37288 c 0,-4.99296 0.61144,-8.20691 2.2354,-11.75 2.89,-6.30531 2.8492,-16.79069 -0.10813,-27.78708 -2.32257,-8.63617 -2.97085,-26.14527 -1.09763,-29.64543 3.54275,-6.61969 19.66231,-6.5056 24.33967,0.17226 2.11531,3.02004 2.27688,19.07011 0.2417,24.01101 -2.17984,5.29209 -4.90773,20.65621 -4.31549,24.3058 0.29497,1.81766 1.69915,6.21148 3.12039,9.76404 1.71578,4.28878 2.58409,8.36496 2.58409,12.13074 l 0,5.67154 -13.5,0 -13.5,0 0,-6.87288 z m 44,1.4206 0,-5.45229 6.25,-0.29771 6.25,-0.29772 0,-28 0,-28 -6.25,-0.29772 -6.25,-0.29771 0,-5.45229 0,-5.45228 13.5,0 13.5,0 0,5.57792 0,5.57793 4.21958,-3.61181 c 15.04646,-12.8792 37.53456,-13.16432 46.25107,-0.58639 3.73692,5.39237 4.52935,11.98446 4.52935,37.67884 l 0,23.36351 6,0 6,0 0,5.5 0,5.5 -19.5,0 -19.5,0 0,-5.5 0,-5.5 6,0 6,0 -0.0564,-23.25 c -0.0371,-15.30405 -0.46436,-24.41415 -1.25,-26.65634 -1.87549,-5.35252 -5.73172,-7.59685 -13.01689,-7.57586 -7.55864,0.0218 -14.06818,2.92175 -20.92667,9.32274 l -4.75,4.43314 0,21.86316 0,21.86316 6,0 6,0 0,5.5 0,5.5 -19.5,0 -19.5,0 0,-5.45228 z m -34.70676,-81.17445 c -2.09928,-1.03512 -3.59564,-2.75951 -4.33279,-4.99309 -2.29891,-6.96577 5.04142,-13.40556 11.66284,-10.232 6.57782,3.15267 6.53562,12.12494 -0.0718,15.26036 -4.00384,1.89995 -3.32684,1.90324 -7.25826,-0.0353 z m -39.79324,-37.73852 c -5.27378,-2.42551 -7.79322,-6.06475 -8.22247,-11.87706 -0.53317,-7.21952 1.8144,-11.55888 7.88255,-14.57045 4.01518,-1.99269 5.19807,-2.16789 8.54763,-1.26595 9.35726,2.51965 13.4043,12.83376 8.70306,22.18021 -2.70968,5.38707 -11.19316,8.16289 -16.91077,5.53325 z m 161.5,-70.63475 0,-35 7,0 7,0 0,35 0,35 -7,0 -7,0 0,-35 z m 49,0 0,-35 7,0 7,0 0,35 0,35 -7,0 -7,0 0,-35 z m 24,11.5 0,-23.5 7,0 7,0 0,23.5 0,23.5 -7,0 -7,0 0,-23.5 z m 25,0 0,-23.5 6.5,0 6.5,0 0,23.5 0,23.5 -6.5,0 -6.5,0 0,-23.5 z m -164.03062,13.02231 c -5.6847,-1.8255 -12.36908,-7.47593 -15.23656,-12.87976 -1.72953,-3.25933 -2.20189,-5.8482 -2.21551,-12.14255 -0.0151,-6.99923 0.35016,-8.66332 2.92017,-13.30245 5.95017,-10.74069 19.25191,-16.68474 32.32594,-14.44525 13.28363,2.27539 20.70476,10.10396 20.61498,21.7468 -0.0511,6.61961 -1.66764,10.5512 -6.03912,14.68728 -5.43129,5.13882 -13.09839,6.00076 -15.38429,1.72953 -1.00221,-1.87267 -1.10508,-1.86482 -4.04472,0.30855 -1.92149,1.42062 -4.44899,2.23009 -6.96331,2.23009 -11.174,0 -13.36277,-16.61421 -3.34725,-25.40795 4.32917,-3.80107 11.16083,-4.28606 14.42297,-1.02392 1.71384,1.71384 2.1119,1.79018 2.60699,0.5 0.35848,-0.93418 1.84861,-1.52268 3.85553,-1.52268 l 3.27122,0 -2.97028,9.53888 c -1.63365,5.24639 -2.71797,10.19639 -2.40959,11 0.97501,2.54084 5.26275,1.6785 8.03485,-1.61595 3.23285,-3.84203 3.96255,-6.67936 3.35198,-13.03371 -1.26395,-13.15415 -19.24389,-18.99681 -33.46523,-10.87466 -5.81199,3.31936 -8.99175,7.25463 -10.75296,13.30786 -2.96739,10.19881 1.21868,19.84572 10.8306,24.95943 3.3068,1.75928 5.80889,2.19653 12.62421,2.20615 7.62435,0.0108 9.07846,-0.30537 14.11514,-3.06877 5.29721,-2.90635 5.67939,-2.97789 6.75,-1.26357 0.62417,0.99946 1.13486,2.07195 1.13486,2.38331 0,0.31136 -3.01707,1.97797 -6.70461,3.70357 -8.01978,3.75291 -19.7032,4.72764 -27.32601,2.27977 z m 10.17921,-17.60183 c 2.24344,-1.20066 6.82643,-10.25424 6.84164,-13.51549 0.005,-1.15226 -0.89206,-2.91116 -1.99429,-3.90867 -2.7823,-2.51794 -6.30041,-0.78 -8.95521,4.42385 -2.46904,4.8397 -2.6245,9.77729 -0.38574,12.25109 1.94406,2.14817 1.89494,2.13998 4.4936,0.74922 z M 590.39809,664.3419 c -4.84783,-1.72896 -7.37512,-4.02936 -9.93307,-9.04138 -4.41691,-8.65443 -1.52296,-19.98747 6.44993,-25.25869 3.43659,-2.27208 5.2492,-2.74796 10.40982,-2.733 5.45173,0.0158 6.73591,0.40749 10.06909,3.07111 5.83251,4.66087 7.482,8.60517 7.11087,17.00369 -0.26502,5.99708 -0.75722,7.67475 -3.18585,10.85885 -5.03864,6.606 -12.99569,8.92586 -20.92079,6.09942 z m 244.3162,-34.05119 0,-23.5 6.5,0 6.5,0 0,23.5 0,23.5 -6.5,0 -6.5,0 0,-23.5 z m -362.9501,3.45101 c -6.7229,-1.38238 -14.85954,-5.911 -18.72155,-10.4199 -5.97695,-6.97808 -7.67489,-11.85211 -7.67489,-22.03111 0,-7.07007 0.45268,-9.96496 2.11106,-13.5 4.72752,-10.07732 13.47503,-16.68758 25.39046,-19.18686 4.77122,-1.00078 6.57764,-0.91167 12.16193,0.59993 3.60712,0.9764 7.32993,2.33943 8.27291,3.02895 1.55753,1.1389 1.32503,1.64313 -2.5397,5.50786 -6.60817,6.60817 -9.44905,13.79994 -9.39277,23.77809 0.0405,7.17886 0.45356,9.05503 3.23967,14.7144 1.78411,3.62405 4.82816,7.84844 6.89812,9.57287 3.5911,2.99167 3.6444,3.13157 1.73576,4.55605 -4.12849,3.08125 -14.78134,4.75732 -21.481,3.37972 z m 410.9501,-20.45101 0,-6.5 7,0 7,0 0,6.5 0,6.5 -7,0 -7,0 0,-6.5 z m 25,0 0,-6.5 19,0 19,0 0,6.5 0,6.5 -19,0 -19,0 0,-6.5 z"
         id="path2998"
         style="fill:#006ba4"
         inkscape:connector-curvature="0" />
    </g>
  </g>
</svg>
